<svg xmlns="http://www.w3.org/2000/svg" width="941.433349609375" height="533.8183201652635" viewBox="0 0 1525.5 865"><g><rect width="1525.5" height="865" fill="rgba(0,0,0,0)" stroke="000" stroke-width="0"/><path d="M248.5,503L248.5,517.25C248.5,536,229.75,536,229.75,536L173.75,536C155,536,155,554.75,155,554.75L155,569" fill="none" stroke="rgb(118, 118, 118)" stroke-width="6" stroke-dasharray="6,6"/><path d="M248.5,503L248.5,517.25C248.5,536,267.25,536,267.25,536L323.25,536C342,536,342,554.75,342,554.75L342,569" fill="none" stroke="rgb(118, 118, 118)" stroke-width="6" stroke-dasharray="6,6"/><path d="M529,503L529,517.25C529,536,529,554.75,529,554.75L529,569" fill="none" stroke="rgb(118, 118, 118)" stroke-width="6" stroke-dasharray="6,6"/><path d="M996.5,503L996.5,517.25C996.5,536,996.5,554.75,996.5,554.75L996.5,569" fill="none" stroke="rgb(118, 118, 118)" stroke-width="6" stroke-dasharray="6,6"/><path d="M1183.5,503L1183.5,517.25C1183.5,536,1183.5,554.75,1183.5,554.75L1183.5,569" fill="none" stroke="rgb(118, 118, 118)" stroke-width="6" stroke-dasharray="6,6"/><path d="M1370.5,503L1370.5,517.25C1370.5,536,1370.5,554.75,1370.5,554.75L1370.5,569" fill="none" stroke="rgb(118, 118, 118)" stroke-width="6" stroke-dasharray="6,6"/><path d="M529,644L529,658.25C529,677,510.25,677,510.25,677L454.25,677C435.5,677,435.5,695.75,435.5,695.75L435.5,710" fill="none" stroke="rgb(110, 67, 32)" stroke-width="6" stroke-dasharray="none"/><path d="M529,644L529,658.25C529,677,547.75,677,547.75,677L603.75,677C622.5,677,622.5,695.75,622.5,695.75L622.5,710" fill="none" stroke="rgb(110, 67, 32)" stroke-width="6" stroke-dasharray="none"/><path d="M996.5,644L996.5,658.25C996.5,677,977.75,677,977.75,677L828.25,677C809.5,677,809.5,695.75,809.5,695.75L809.5,710" fill="none" stroke="rgb(110, 67, 32)" stroke-width="6" stroke-dasharray="none"/><path d="M996.5,644L996.5,658.25C996.5,677,996.5,695.75,996.5,695.75L996.5,710" fill="none" stroke="rgb(110, 67, 32)" stroke-width="6" stroke-dasharray="none"/><path d="M996.5,644L996.5,658.25C996.5,677,1015.25,677,1015.25,677L1164.75,677C1183.5,677,1183.5,695.75,1183.5,695.75L1183.5,710" fill="none" stroke="rgb(110, 67, 32)" stroke-width="6" stroke-dasharray="none"/><path d="M1370.5,644L1370.5,658.25C1370.5,677,1370.5,695.75,1370.5,695.75L1370.5,710" fill="none" stroke="rgb(110, 67, 32)" stroke-width="6" stroke-dasharray="none"/><path d="M529,155L529,169.25C529,188,529,206.75,529,206.75L529,221" fill="none" stroke="rgb(62, 84, 29)" stroke-width="6" stroke-dasharray="none"/><path d="M716,80L716,98.75C716,117.5,697.25,117.5,697.25,117.5L547.75,117.5C529,117.5,529,136.25,529,136.25L529,155" fill="none" stroke="rgb(118, 118, 118)" stroke-width="6" stroke-dasharray="6,6"/><path d="M809.5,155L809.5,376.25C809.5,395,790.75,395,790.75,395L547.75,395C529,395,529,413.75,529,413.75L529,428" fill="none" stroke="rgb(62, 84, 29)" stroke-width="6" stroke-dasharray="none"/><path d="M809.5,155L809.5,376.25C809.5,395,828.25,395,828.25,395L977.75,395C996.5,395,996.5,413.75,996.5,413.75L996.5,428" fill="none" stroke="rgb(62, 84, 29)" stroke-width="6" stroke-dasharray="none"/><path d="M809.5,155L809.5,376.25C809.5,395,828.25,395,828.25,395L1164.75,395C1183.5,395,1183.5,413.75,1183.5,413.75L1183.5,428" fill="none" stroke="rgb(62, 84, 29)" stroke-width="6" stroke-dasharray="none"/><path d="M809.5,155L809.5,376.25C809.5,395,828.25,395,828.25,395L1351.75,395C1370.5,395,1370.5,413.75,1370.5,413.75L1370.5,428" fill="none" stroke="rgb(62, 84, 29)" stroke-width="6" stroke-dasharray="none"/><path d="M716,80L716,98.75C716,117.5,734.75,117.5,734.75,117.5L790.75,117.5C809.5,117.5,809.5,136.25,809.5,136.25L809.5,155" fill="none" stroke="rgb(0, 91, 77)" stroke-width="6" stroke-dasharray="none"/><path d="M903,80L903,98.75C903,117.5,884.25,117.5,884.25,117.5L828.25,117.5C809.5,117.5,809.5,136.25,809.5,136.25L809.5,155" fill="none" stroke="rgb(0, 91, 77)" stroke-width="6" stroke-dasharray="none"/><path d="M809.5,155L809.5,376.25C809.5,395,790.75,395,790.75,395L267.25,395C248.5,395,248.5,413.75,248.5,413.75L248.5,428" fill="none" stroke="rgb(62, 84, 29)" stroke-width="6" stroke-dasharray="none"/><g transform="translate(173.5, 428)"><rect width="150" height="75" fill="rgb(62, 84, 29)" stroke="rgb(62, 84, 29)" stroke-width="3" rx="18.75"/><text x="75" y="37.5" text-anchor="middle" font-family="Arial, sans-serif" font-weight="normal" font-size="16px" fill="rgb(226, 226, 226)" style="text-shadow: rgba(0, 0, 0, 0.75) 1px 1px 2px;"/></g><g transform="translate(454, 428)"><rect width="150" height="75" fill="rgb(62, 84, 29)" stroke="rgb(62, 84, 29)" stroke-width="3" rx="18.75"/><text x="75" y="37.5" text-anchor="middle" font-family="Arial, sans-serif" font-weight="normal" font-size="16px" fill="rgb(226, 226, 226)" style="text-shadow: rgba(0, 0, 0, 0.75) 1px 1px 2px;"/></g><g transform="translate(921.5, 428)"><rect width="150" height="75" fill="rgb(62, 84, 29)" stroke="rgb(62, 84, 29)" stroke-width="3" rx="18.75"/><text x="75" y="37.5" text-anchor="middle" font-family="Arial, sans-serif" font-weight="normal" font-size="16px" fill="rgb(226, 226, 226)" style="text-shadow: rgba(0, 0, 0, 0.75) 1px 1px 2px;"/></g><g transform="translate(1108.5, 428)"><rect width="150" height="75" fill="rgb(62, 84, 29)" stroke="rgb(62, 84, 29)" stroke-width="3" rx="18.75"/><text x="75" y="37.5" text-anchor="middle" font-family="Arial, sans-serif" font-weight="normal" font-size="16px" fill="rgb(226, 226, 226)" style="text-shadow: rgba(0, 0, 0, 0.75) 1px 1px 2px;"/></g><g transform="translate(1295.5, 428)"><rect width="150" height="75" fill="rgb(62, 84, 29)" stroke="rgb(62, 84, 29)" stroke-width="3" rx="18.75"/><text x="75" y="37.5" text-anchor="middle" font-family="Arial, sans-serif" font-weight="normal" font-size="16px" fill="rgb(226, 226, 226)" style="text-shadow: rgba(0, 0, 0, 0.75) 1px 1px 2px;"/></g><g transform="translate(80, 569)"><rect width="150" height="75" fill="rgb(78, 78, 78)" stroke="rgb(78, 78, 78)" stroke-width="3" rx="18.75"/><text x="75" y="37.5" text-anchor="middle" font-family="Arial, sans-serif" font-weight="normal" font-size="16px" fill="rgb(226, 226, 226)" style="text-shadow: rgba(0, 0, 0, 0.75) 1px 1px 2px;"/></g><g transform="translate(267, 569)"><rect width="150" height="75" fill="rgb(78, 78, 78)" stroke="rgb(78, 78, 78)" stroke-width="3" rx="18.75"/><text x="75" y="37.5" text-anchor="middle" font-family="Arial, sans-serif" font-weight="normal" font-size="16px" fill="rgb(226, 226, 226)" style="text-shadow: rgba(0, 0, 0, 0.75) 1px 1px 2px;"/></g><g transform="translate(454, 569)"><rect width="150" height="75" fill="rgb(78, 78, 78)" stroke="rgb(78, 78, 78)" stroke-width="3" rx="18.75"/><text x="75" y="37.5" text-anchor="middle" font-family="Arial, sans-serif" font-weight="normal" font-size="16px" fill="rgb(226, 226, 226)" style="text-shadow: rgba(0, 0, 0, 0.75) 1px 1px 2px;"/></g><g transform="translate(921.5, 569)"><rect width="150" height="75" fill="rgb(78, 78, 78)" stroke="rgb(78, 78, 78)" stroke-width="3" rx="18.75"/><text x="75" y="37.5" text-anchor="middle" font-family="Arial, sans-serif" font-weight="normal" font-size="16px" fill="rgb(226, 226, 226)" style="text-shadow: rgba(0, 0, 0, 0.75) 1px 1px 2px;"/></g><g transform="translate(1108.5, 569)"><rect width="150" height="75" fill="rgb(78, 78, 78)" stroke="rgb(78, 78, 78)" stroke-width="3" rx="18.75"/><text x="75" y="37.5" text-anchor="middle" font-family="Arial, sans-serif" font-weight="normal" font-size="16px" fill="rgb(226, 226, 226)" style="text-shadow: rgba(0, 0, 0, 0.75) 1px 1px 2px;"/></g><g transform="translate(1295.5, 569)"><rect width="150" height="75" fill="rgb(78, 78, 78)" stroke="rgb(78, 78, 78)" stroke-width="3" rx="18.75"/><text x="75" y="37.5" text-anchor="middle" font-family="Arial, sans-serif" font-weight="normal" font-size="16px" fill="rgb(226, 226, 226)" style="text-shadow: rgba(0, 0, 0, 0.75) 1px 1px 2px;"/></g><g transform="translate(360.5, 710)"><rect width="150" height="75" fill="rgb(110, 67, 32)" stroke="rgb(110, 67, 32)" stroke-width="3" rx="18.75"/><text x="75" y="37.5" text-anchor="middle" font-family="Arial, sans-serif" font-weight="normal" font-size="16px" fill="rgb(226, 226, 226)" style="text-shadow: rgba(0, 0, 0, 0.75) 1px 1px 2px;"/></g><g transform="translate(547.5, 710)"><rect width="150" height="75" fill="rgb(110, 67, 32)" stroke="rgb(110, 67, 32)" stroke-width="3" rx="18.75"/><text x="75" y="37.5" text-anchor="middle" font-family="Arial, sans-serif" font-weight="normal" font-size="16px" fill="rgb(226, 226, 226)" style="text-shadow: rgba(0, 0, 0, 0.75) 1px 1px 2px;"/></g><g transform="translate(734.5, 710)"><rect width="150" height="75" fill="rgb(110, 67, 32)" stroke="rgb(110, 67, 32)" stroke-width="3" rx="18.75"/><text x="75" y="37.5" text-anchor="middle" font-family="Arial, sans-serif" font-weight="normal" font-size="16px" fill="rgb(226, 226, 226)" style="text-shadow: rgba(0, 0, 0, 0.75) 1px 1px 2px;"/></g><g transform="translate(921.5, 710)"><rect width="150" height="75" fill="rgb(110, 67, 32)" stroke="rgb(110, 67, 32)" stroke-width="3" rx="18.75"/><text x="75" y="37.5" text-anchor="middle" font-family="Arial, sans-serif" font-weight="normal" font-size="16px" fill="rgb(226, 226, 226)" style="text-shadow: rgba(0, 0, 0, 0.75) 1px 1px 2px;"/></g><g transform="translate(1108.5, 710)"><rect width="150" height="75" fill="rgb(110, 67, 32)" stroke="rgb(110, 67, 32)" stroke-width="3" rx="18.75"/><text x="75" y="37.5" text-anchor="middle" font-family="Arial, sans-serif" font-weight="normal" font-size="16px" fill="rgb(226, 226, 226)" style="text-shadow: rgba(0, 0, 0, 0.75) 1px 1px 2px;"/></g><g transform="translate(1295.5, 710)"><rect width="150" height="75" fill="rgb(110, 67, 32)" stroke="rgb(110, 67, 32)" stroke-width="3" rx="18.75"/><text x="75" y="37.5" text-anchor="middle" font-family="Arial, sans-serif" font-weight="normal" font-size="16px" fill="rgb(226, 226, 226)" style="text-shadow: rgba(0, 0, 0, 0.75) 1px 1px 2px;"/></g><g transform="translate(454, 80)"><rect width="150" height="75" fill="rgb(78, 78, 78)" stroke="rgb(78, 78, 78)" stroke-width="3" rx="18.75"/><text x="75" y="37.5" text-anchor="middle" font-family="Arial, sans-serif" font-weight="normal" font-size="16px" fill="rgb(226, 226, 226)" style="text-shadow: rgba(0, 0, 0, 0.75) 1px 1px 2px;"/></g><g transform="translate(641, 80)"><rect width="150" height="75" fill="rgb(0, 91, 77)" stroke="rgb(0, 91, 77)" stroke-width="3" rx="18.75"/><text x="75" y="37.5" text-anchor="middle" font-family="Arial, sans-serif" font-weight="normal" font-size="16px" fill="rgb(226, 226, 226)" style="text-shadow: rgba(0, 0, 0, 0.75) 1px 1px 2px;"/></g><g transform="translate(828, 80)"><rect width="150" height="75" fill="rgb(0, 91, 77)" stroke="rgb(0, 91, 77)" stroke-width="3" rx="18.75"/><text x="75" y="37.5" text-anchor="middle" font-family="Arial, sans-serif" font-weight="normal" font-size="16px" fill="rgb(226, 226, 226)" style="text-shadow: rgba(0, 0, 0, 0.75) 1px 1px 2px;"/></g><g transform="translate(454, 221)"><rect width="150" height="75" fill="rgb(62, 84, 29)" stroke="rgb(62, 84, 29)" stroke-width="3" rx="18.75"/><text x="75" y="37.5" text-anchor="middle" font-family="Arial, sans-serif" font-weight="normal" font-size="16px" fill="rgb(226, 226, 226)" style="text-shadow: rgba(0, 0, 0, 0.75) 1px 1px 2px;"/></g></g></svg>